<svg xmlns="http://www.w3.org/2000/svg" width="1200" height="420" viewBox="0 0 1200 420" role="img" aria-label="nugget-fwlib logo">
  <defs>
    <linearGradient id="red" x1="0" y1="0" x2="1" y2="1"><stop offset="0" stop-color="#E53935"/><stop offset="1" stop-color="#8B0000"/></linearGradient>
    <linearGradient id="gold" x1="0" y1="0" x2="1" y2="1"><stop offset="0" stop-color="#FFD56A"/><stop offset="1" stop-color="#C7931A"/></linearGradient>
    <filter id="shadow"><feDropShadow dx="0" dy="10" stdDeviation="10" flood-color="#000" flood-opacity="0.25"/></filter>
  </defs>
  <rect width="1200" height="420" rx="42" fill="#121417"/>
  <rect x="34" y="34" width="1132" height="352" rx="30" fill="#1B1F24" stroke="#D9DEE7" stroke-opacity="0.15"/>
  <g transform="translate(92 74)" filter="url(#shadow)">
    <rect x="0" y="0" width="260" height="260" rx="34" fill="url(#red)"/>
    <rect x="28" y="32" width="204" height="168" rx="18" fill="#2B1010" stroke="#FFD6D6" stroke-opacity="0.28"/>
    <circle cx="70" cy="70" r="12" fill="url(#gold)"/><circle cx="190" cy="70" r="12" fill="url(#gold)"/><circle cx="70" cy="162" r="12" fill="url(#gold)"/><circle cx="190" cy="162" r="12" fill="url(#gold)"/>
    <path d="M70 70 H190 M70 162 H190 M70 70 V162 M190 70 V162" stroke="#FFD56A" stroke-width="8" stroke-linecap="round" opacity="0.9"/>
    <path d="M78 116 H182" stroke="#F7F7F7" stroke-width="12" stroke-linecap="round"/>
    <path d="M130 64 V168" stroke="#F7F7F7" stroke-width="12" stroke-linecap="round"/>
    <text x="130" y="238" text-anchor="middle" font-family="Segoe UI, Arial, sans-serif" font-size="34" font-weight="800" fill="#fff">RB</text>
  </g>
  <g transform="translate(405 116)">
    <text x="0" y="0" font-family="Segoe UI, Arial, sans-serif" font-size="84" font-weight="800" fill="#F6F8FA">nugget-fwlib</text>
    <text x="2" y="64" font-family="Segoe UI, Arial, sans-serif" font-size="30" font-weight="500" fill="#FFD56A">GCBASIC • REDBOARD • PIC16F18424 • GSA Text</text>
    <text x="2" y="126" font-family="Segoe UI, Arial, sans-serif" font-size="25" fill="#C9D1D9">Small readable behaviors for real teaching instruments.</text>
  </g>
  <g transform="translate(405 296)">
    <rect x="0" y="0" width="118" height="38" rx="19" fill="#2F363D"/><text x="59" y="26" text-anchor="middle" font-family="Segoe UI, Arial" font-size="18" fill="#F6F8FA">GPIO</text>
    <rect x="132" y="0" width="126" height="38" rx="19" fill="#2F363D"/><text x="195" y="26" text-anchor="middle" font-family="Segoe UI, Arial" font-size="18" fill="#F6F8FA">TIMERS</text>
    <rect x="272" y="0" width="102" height="38" rx="19" fill="#2F363D"/><text x="323" y="26" text-anchor="middle" font-family="Segoe UI, Arial" font-size="18" fill="#F6F8FA">ADC</text>
    <rect x="388" y="0" width="112" height="38" rx="19" fill="#2F363D"/><text x="444" y="26" text-anchor="middle" font-family="Segoe UI, Arial" font-size="18" fill="#F6F8FA">UART</text>
    <rect x="514" y="0" width="132" height="38" rx="19" fill="#2F363D"/><text x="580" y="26" text-anchor="middle" font-family="Segoe UI, Arial" font-size="18" fill="#F6F8FA">GSA TEXT</text>
  </g>
</svg>
